<?xml version="1.0" standalone="no"?>
<!DOCTYPE svg PUBLIC "-//W3C//DTD SVG 20010904//EN"
 "http://www.w3.org/TR/2001/REC-SVG-20010904/DTD/svg10.dtd">
<svg version="1.0" xmlns="http://www.w3.org/2000/svg"
 width="1000.000000pt" height="1000.000000pt" viewBox="0 0 1000.000000 1000.000000"
 preserveAspectRatio="xMidYMid meet">
<metadata>
Created by potrace 1.14, written by Peter Selinger 2001-2017
</metadata>
<g transform="translate(0.000000,1000.000000) scale(0.100000,-0.100000)"
fill="#000000" stroke="none">
<path d="M4890 9154 c-85 -11 -185 -36 -260 -65 -229 -88 -457 -318 -539 -543
-44 -123 -54 -198 -48 -355 9 -244 73 -399 240 -578 121 -129 284 -229 452
-275 69 -19 106 -22 265 -22 204 0 280 14 408 74 158 74 346 246 430 393 116
203 148 440 92 677 -78 325 -372 604 -713 676 -73 15 -264 26 -327 18z"/>
<path d="M7290 8305 c-441 -75 -818 -429 -905 -849 -22 -111 -21 -324 4 -441
65 -316 284 -588 598 -744 285 -142 676 -147 976 -12 150 67 339 224 452 376
143 192 213 457 187 708 -28 262 -120 455 -308 643 -178 177 -377 282 -609
319 -108 18 -292 18 -395 0z"/>
<path d="M2335 7996 c-243 -56 -445 -214 -555 -435 -94 -189 -95 -448 -1 -646
90 -190 305 -365 521 -422 92 -25 330 -24 420 1 266 73 497 303 567 566 24 88
23 281 -1 368 -38 139 -106 254 -214 359 -86 84 -186 145 -302 184 -86 29
-108 33 -235 35 -94 3 -160 -1 -200 -10z"/>
<path d="M4741 6543 c-37 -19 -78 -74 -86 -118 -3 -17 1 -137 9 -269 13 -219
13 -240 -3 -255 -25 -28 -92 -102 -141 -160 -25 -29 -56 -65 -70 -80 -14 -15
-47 -52 -73 -83 l-49 -55 -22 21 c-12 11 -46 41 -74 66 -55 47 -86 74 -142
125 -88 80 -140 102 -203 84 -108 -30 -161 -150 -104 -240 18 -30 175 -175
305 -282 19 -15 29 -27 25 -27 -28 0 -195 -275 -238 -392 -10 -27 -20 -48 -24
-48 -3 0 -135 -18 -293 -39 -310 -42 -330 -48 -377 -112 -29 -39 -38 -107 -21
-149 7 -17 31 -46 53 -65 37 -32 46 -35 101 -35 34 0 155 14 271 30 115 17
218 30 227 30 12 0 20 -15 28 -56 15 -72 61 -207 90 -264 61 -121 178 -260
219 -260 27 0 38 11 281 290 122 140 237 271 254 291 17 19 54 62 81 93 28 32
63 72 78 89 16 18 130 148 255 290 124 141 229 256 233 255 15 -6 119 -102
119 -110 0 -4 -8 -16 -17 -26 -28 -29 -145 -162 -213 -241 -25 -29 -56 -65
-70 -80 -14 -15 -45 -51 -70 -80 -25 -29 -56 -64 -70 -80 -14 -15 -47 -53 -75
-85 -27 -32 -59 -68 -70 -80 -11 -12 -42 -48 -70 -80 -27 -32 -59 -68 -70 -80
-11 -12 -42 -48 -70 -80 -27 -32 -61 -70 -75 -85 -31 -34 -80 -91 -140 -160
-25 -28 -61 -70 -81 -92 -20 -22 -42 -51 -49 -65 -12 -22 -11 -27 13 -52 36
-37 165 -113 250 -146 37 -15 126 -37 197 -48 108 -18 130 -25 130 -39 0 -94
33 -526 41 -543 61 -117 203 -130 282 -24 13 18 27 45 29 59 3 15 -1 127 -8
250 -7 123 -13 252 -13 286 -1 59 1 63 24 69 53 13 315 194 342 237 5 6 22 25
39 40 l32 29 123 -109 c223 -196 236 -203 315 -189 49 10 120 81 130 131 14
78 -14 125 -144 235 -29 25 -66 56 -81 70 -15 14 -50 45 -78 69 l-50 43 25 27
c13 14 74 84 136 154 61 71 129 148 151 172 l40 44 252 19 c246 19 254 20 289
47 102 78 99 202 -5 272 -41 28 -66 28 -316 8 -254 -20 -243 -21 -291 23 -45
41 -92 82 -178 157 -32 28 -68 59 -80 70 -12 11 -48 43 -80 70 -32 28 -68 59
-80 70 -12 11 -48 43 -80 70 -32 28 -68 59 -80 70 -12 11 -48 43 -80 70 -32
28 -70 61 -85 75 -15 14 -51 45 -80 70 -29 25 -65 56 -80 70 -15 14 -51 45
-80 70 -58 50 -101 88 -147 131 l-31 28 -12 243 c-14 272 -19 292 -84 339 -47
34 -111 39 -166 12z"/>
<path d="M5645 6236 c-136 -27 -245 -82 -348 -179 -71 -66 -68 -75 57 -182 32
-27 64 -55 71 -62 83 -80 781 -683 791 -683 19 0 74 60 112 122 94 157 115
362 56 549 -27 87 -122 230 -183 276 -20 15 -44 35 -55 45 -29 26 -145 84
-204 102 -78 22 -214 28 -297 12z"/>
<path d="M1330 5445 c-74 -17 -183 -68 -252 -119 -99 -74 -190 -211 -224 -338
-19 -71 -18 -225 2 -301 55 -211 236 -385 464 -443 99 -25 293 -16 382 19 183
71 332 223 388 398 35 106 35 263 0 368 -59 183 -222 343 -410 402 -86 28
-260 34 -350 14z"/>
<path d="M8370 5445 c-74 -17 -183 -68 -252 -119 -99 -74 -190 -211 -224 -338
-19 -71 -18 -225 2 -301 54 -209 236 -384 459 -442 78 -20 252 -20 330 0 201
53 382 222 445 415 35 107 35 264 0 369 -59 183 -222 343 -410 402 -86 28
-260 34 -350 14z"/>
<path d="M2350 3045 c-228 -57 -426 -256 -470 -472 -20 -93 -8 -254 24 -337
66 -172 222 -315 416 -382 44 -15 83 -19 195 -18 125 0 147 3 207 26 103 39
173 86 253 169 146 153 202 344 160 544 -42 201 -203 380 -407 453 -61 21 -94
26 -198 28 -83 2 -143 -1 -180 -11z"/>
<path d="M7330 3045 c-175 -44 -331 -166 -414 -324 -48 -93 -66 -167 -66 -281
0 -178 49 -291 180 -421 142 -142 283 -195 490 -186 168 7 277 53 406 170 297
269 258 736 -80 956 -107 70 -189 94 -336 97 -83 2 -143 -1 -180 -11z"/>
<path d="M4850 2055 c-74 -17 -183 -68 -252 -119 -99 -74 -190 -211 -224 -338
-18 -69 -18 -228 1 -298 57 -215 236 -387 465 -446 99 -25 293 -16 382 19 185
71 332 227 391 412 32 101 31 252 -3 354 -59 183 -222 343 -410 402 -86 28
-260 34 -350 14z"/>
</g>
</svg>
