<?xml version="1.0" standalone="no"?>
<!DOCTYPE svg PUBLIC "-//W3C//DTD SVG 20010904//EN"
 "http://www.w3.org/TR/2001/REC-SVG-20010904/DTD/svg10.dtd">
<svg version="1.0" xmlns="http://www.w3.org/2000/svg"
 width="700.000000pt" height="700.000000pt" viewBox="0 0 700.000000 700.000000"
 preserveAspectRatio="xMidYMid meet">
<metadata>
Created by potrace 1.14, written by Peter Selinger 2001-2017
</metadata>
<g transform="translate(0.000000,700.000000) scale(0.100000,-0.100000)"
fill="#000000" stroke="none">
<path d="M3386 6904 c-128 -31 -256 -127 -367 -276 -59 -80 -157 -263 -204
-383 -15 -38 -29 -71 -30 -73 -2 -2 -50 32 -107 76 -372 279 -680 348 -908
202 -212 -136 -295 -424 -246 -849 9 -79 16 -145 14 -146 -2 -2 -23 1 -48 5
-25 5 -109 14 -188 21 -227 18 -406 -6 -549 -76 -191 -94 -296 -278 -279 -489
15 -181 127 -413 305 -635 28 -35 50 -65 49 -66 -2 -2 -34 -15 -73 -30 -354
-140 -591 -336 -655 -543 -72 -234 39 -469 305 -647 86 -57 272 -152 366 -186
l59 -22 -20 -26 c-11 -14 -52 -69 -90 -121 -290 -397 -327 -725 -106 -946 158
-158 433 -213 811 -163 39 5 82 12 96 14 l26 6 -15 -83 c-22 -125 -21 -451 1
-548 65 -279 251 -442 501 -441 199 1 401 89 669 293 43 33 80 58 82 56 1 -1
15 -34 30 -73 47 -120 145 -303 204 -383 160 -215 350 -314 544 -284 239 37
447 256 602 637 20 50 40 93 44 97 4 4 23 -6 43 -22 147 -121 360 -245 498
-290 330 -107 604 38 700 370 31 104 39 375 16 544 -8 66 -14 121 -13 122 1 1
45 -5 97 -13 136 -21 415 -21 510 0 148 33 250 87 336 178 144 154 163 374 55
629 -43 100 -111 212 -206 339 l-81 108 61 23 c101 38 276 126 360 182 242
159 364 383 322 590 -8 42 -28 101 -43 132 -84 172 -293 334 -584 453 l-115
47 80 107 c94 126 167 246 207 341 168 400 16 715 -387 804 -101 22 -386 23
-520 1 -49 -8 -91 -14 -93 -12 -1 1 4 55 13 119 21 167 20 377 -5 496 -59 287
-244 452 -505 451 -189 -1 -398 -90 -640 -275 -54 -42 -102 -72 -106 -68 -4 4
-22 43 -39 87 -114 290 -282 511 -452 594 -124 61 -215 73 -332 45z m145 -465
c74 -52 193 -272 270 -497 l42 -123 -39 -44 c-22 -24 -88 -101 -149 -171 -60
-70 -121 -140 -135 -156 l-25 -28 -78 95 c-43 52 -121 142 -173 199 l-94 105
39 113 c54 156 112 288 165 372 44 70 120 156 139 156 5 0 22 -9 38 -21z
m-1389 -404 c33 -14 95 -46 136 -71 135 -84 366 -278 358 -300 -7 -17 -72
-343 -86 -431 l-11 -71 -77 29 c-42 15 -154 54 -249 85 l-172 57 -11 51 c-64
295 -75 549 -28 651 15 33 58 33 140 0z m2855 -12 c21 -51 29 -252 14 -368
-14 -108 -51 -298 -60 -314 -4 -6 -68 -31 -142 -55 -74 -24 -184 -62 -245 -84
l-111 -41 -6 47 c-4 26 -25 142 -48 258 l-42 211 52 48 c124 116 285 233 393
288 71 35 102 45 146 46 29 1 35 -4 49 -36z m-1882 -868 c48 -58 85 -110 83
-117 -2 -6 -42 -21 -89 -33 -46 -12 -95 -25 -108 -29 -24 -8 -24 -8 -17 50 8
72 37 234 41 234 2 0 43 -47 90 -105z m884 -50 c10 -66 16 -123 12 -127 -3 -4
-35 1 -71 12 -36 11 -85 24 -108 30 -32 8 -42 15 -38 26 3 8 43 60 88 115 69
84 84 98 90 82 4 -10 17 -72 27 -138z m-2564 -106 c72 -11 152 -25 180 -32
l50 -13 31 -100 c17 -54 55 -164 83 -243 28 -79 50 -146 48 -148 -3 -2 -78
-17 -168 -34 -90 -16 -203 -39 -251 -50 l-86 -20 -49 52 c-179 192 -315 405
-338 532 -7 36 -6 38 31 53 84 36 248 37 469 3z m4517 15 c71 -7 108 -28 108
-60 0 -36 -46 -147 -93 -224 -47 -76 -165 -231 -239 -313 l-53 -58 -120 26
c-66 15 -180 37 -254 51 -74 13 -136 25 -137 27 -2 2 12 43 30 93 18 49 56
159 85 245 l52 157 138 26 c208 41 323 48 483 30z m-2207 -79 c137 -24 255
-63 392 -130 415 -203 704 -584 789 -1040 26 -138 26 -382 0 -520 -139 -741
-820 -1258 -1561 -1185 -677 67 -1211 577 -1306 1248 -17 119 -6 393 19 503
60 255 168 468 333 653 257 288 582 450 984 490 66 6 264 -5 350 -19z m-1401
-194 c70 -27 130 -52 134 -55 3 -4 -31 -44 -76 -89 -54 -54 -85 -78 -92 -71
-9 9 -100 241 -100 256 0 11 -9 14 134 -41z m2420 -18 c-53 -145 -77 -203 -83
-203 -4 0 -42 36 -86 80 -49 49 -76 83 -70 89 10 8 242 100 257 101 4 0 -4
-30 -18 -67z m-2742 -715 c3 -7 -6 -48 -19 -92 -13 -44 -23 -88 -23 -97 0 -38
-32 -24 -131 56 -57 47 -105 88 -107 93 -1 5 55 18 125 29 159 26 151 25 155
11z m3116 -14 c61 -9 112 -21 112 -25 0 -15 -213 -180 -221 -172 -7 8 -59 196
-59 215 0 6 12 8 28 5 15 -3 78 -13 140 -23z m-3867 -230 c46 -42 132 -117
192 -167 59 -50 107 -94 107 -97 0 -4 -46 -46 -102 -93 -57 -47 -143 -122
-192 -166 -50 -45 -94 -81 -99 -81 -5 0 -55 15 -111 34 -223 75 -414 174 -487
253 -21 24 -39 47 -39 52 0 19 64 83 123 123 33 22 102 61 154 85 97 46 325
132 354 132 8 1 53 -33 100 -75z m4675 35 c227 -77 457 -205 494 -273 11 -22
11 -30 0 -52 -38 -70 -269 -197 -499 -275 l-129 -43 -89 80 c-48 44 -135 120
-193 169 -58 49 -105 91 -105 95 0 4 59 56 130 117 72 61 157 136 190 167 33
30 65 55 71 56 7 0 65 -18 130 -41z m-3949 -682 c12 -45 24 -89 27 -97 14 -38
-6 -40 -147 -18 -76 12 -136 26 -135 30 6 17 211 176 222 172 6 -2 21 -41 33
-87z m3149 7 c57 -47 104 -89 104 -93 0 -9 -270 -54 -278 -46 -6 6 36 179 50
208 5 9 11 17 14 17 3 0 53 -39 110 -86z m-3710 -509 c60 -13 163 -33 229 -45
172 -29 168 -28 162 -48 -3 -9 -42 -120 -85 -247 l-80 -230 -70 -17 c-211 -49
-490 -64 -598 -33 -30 9 -57 22 -60 30 -10 25 33 147 80 225 63 107 284 387
307 389 4 1 55 -10 115 -24z m4314 -57 c146 -168 237 -302 283 -420 36 -89 35
-113 -4 -133 -76 -40 -323 -35 -562 11 l-137 26 -35 112 c-19 61 -57 172 -84
246 -28 74 -49 136 -47 137 1 1 64 14 139 28 75 14 185 36 244 49 59 13 113
24 120 25 6 1 43 -36 83 -81z m-3344 -153 c41 -41 74 -79 74 -84 0 -5 -44 -26
-97 -47 -54 -20 -113 -43 -132 -51 -19 -7 -36 -11 -39 -8 -10 10 93 265 107
265 8 0 47 -34 87 -75z m2331 -57 c28 -73 49 -134 48 -136 -6 -7 -258 95 -263
106 -5 15 135 162 154 162 6 0 34 -60 61 -132z m-1632 -342 c62 -17 91 -29 93
-40 2 -9 -36 -64 -84 -123 -87 -105 -88 -106 -96 -77 -15 57 -40 235 -34 249
7 19 14 19 121 -9z m908 17 c6 -10 -30 -241 -41 -266 -6 -15 -21 -1 -86 80
-44 54 -84 104 -89 111 -16 20 7 35 91 58 84 24 118 28 125 17z m-1449 -333
c24 -136 61 -314 72 -352 3 -11 -29 -45 -108 -113 -194 -167 -391 -284 -479
-285 -43 0 -53 16 -70 117 -19 109 1 342 47 544 l15 66 157 51 c86 29 198 67
247 86 50 18 91 33 92 32 1 0 13 -66 27 -146z m2051 90 c72 -26 177 -62 233
-79 117 -37 105 -16 144 -226 28 -150 32 -425 8 -490 -15 -39 -17 -40 -61 -39
-101 1 -329 142 -521 323 l-60 57 40 204 c23 113 44 229 48 258 5 43 10 52 23
47 9 -4 75 -28 146 -55z m-974 -369 c68 -78 141 -163 163 -187 l38 -44 -41
-123 c-77 -225 -196 -444 -271 -497 -36 -25 -49 -20 -106 42 -80 86 -156 239
-235 466 l-39 114 91 102 c51 55 128 145 173 198 62 75 83 95 92 85 6 -6 67
-77 135 -156z"/>
<path d="M3353 4619 c-255 -33 -491 -154 -671 -344 -324 -340 -400 -850 -190
-1269 56 -112 110 -188 202 -284 233 -243 574 -369 909 -335 719 73 1184 784
960 1468 -166 508 -681 833 -1210 764z m362 -68 c678 -141 1045 -881 746
-1506 -367 -767 -1439 -820 -1880 -93 -157 259 -196 607 -99 893 127 374 456
653 848 718 75 13 300 6 385 -12z"/>
<path d="M3329 4446 c-81 -28 -138 -67 -205 -138 -115 -121 -161 -301 -119
-462 9 -33 14 -60 13 -61 -2 -1 -23 -7 -48 -14 -167 -48 -302 -179 -351 -344
-17 -55 -20 -87 -17 -170 5 -141 23 -167 23 -34 0 93 3 108 29 162 38 76 105
143 181 181 54 26 70 29 160 29 93 0 105 -2 167 -33 43 -21 83 -51 112 -83
l46 -51 32 19 c26 15 32 25 30 46 -4 41 23 94 57 112 27 14 31 21 31 59 l0 43
-45 6 c-145 20 -282 163 -303 316 -26 191 73 358 251 421 29 10 45 19 37 19
-8 0 -45 -10 -81 -23z"/>
<path d="M3610 4453 c114 -40 215 -142 246 -251 11 -36 15 -82 12 -136 -2 -67
-9 -93 -35 -147 -53 -108 -159 -188 -275 -207 -42 -7 -43 -9 -46 -47 -3 -37 0
-41 27 -52 40 -15 72 -68 69 -112 -2 -30 2 -38 30 -54 l32 -19 64 60 c84 78
151 105 261 105 107 0 177 -27 253 -98 90 -83 138 -206 126 -326 -4 -41 -3
-42 7 -14 17 49 15 193 -5 260 -50 169 -207 323 -359 350 -20 4 -39 11 -42 15
-3 5 2 39 11 77 59 248 -89 510 -335 593 -33 11 -66 20 -73 19 -7 0 7 -8 32
-16z"/>
<path d="M3389 3979 c-43 -10 -136 -51 -163 -71 -19 -15 -18 -17 21 -58 l40
-44 54 25 c46 20 70 24 154 24 84 0 107 -4 144 -23 25 -12 50 -22 57 -22 15 0
85 80 79 90 -8 14 -131 69 -175 79 -53 12 -160 13 -211 0z"/>
<path d="M3022 3478 c6 -103 34 -179 96 -261 42 -54 157 -147 182 -147 5 0 17
26 26 57 l17 57 -24 16 c-96 62 -153 150 -171 264 -12 75 -13 76 -48 86 -19 5
-46 10 -59 10 -23 0 -23 -1 -19 -82z"/>
<path d="M3925 3553 c-65 -14 -72 -21 -78 -85 -9 -106 -62 -191 -169 -273 -26
-19 -26 -21 -14 -68 7 -26 16 -50 20 -54 19 -20 138 68 195 145 64 85 109 236
94 316 -5 26 -10 28 -48 19z"/>
<path d="M3367 3412 c-21 -13 -26 -22 -22 -37 4 -11 14 -49 22 -84 39 -160
-47 -333 -208 -418 -49 -26 -63 -28 -159 -28 -116 0 -161 14 -243 76 -41 30
-41 30 6 -15 65 -62 173 -113 267 -127 144 -22 299 27 411 129 l56 51 48 -49
c54 -55 142 -106 219 -126 60 -16 183 -18 246 -3 65 15 159 63 210 109 l45 40
-60 -35 c-84 -50 -154 -68 -236 -63 -133 10 -256 94 -316 215 -38 78 -45 212
-15 290 l20 52 -36 22 c-34 19 -38 20 -63 5 -34 -20 -99 -21 -125 -1 -24 19
-33 18 -67 -3z"/>
</g>
</svg>
